G04 DipTrace 2.4.0.2*
%INeeg.front.gtl*%
%MOIN*%
%ADD15C,0.016*%
%ADD16C,0.025*%
%ADD17C,0.013*%
%ADD18C,0.1181*%
%ADD22C,0.0984*%
%ADD23R,0.0906X0.0906*%
%ADD24C,0.0906*%
%ADD29C,0.0236*%
%FSLAX44Y44*%
G04*
G70*
G90*
G75*
G01*
%LNTop*%
%LPD*%
X8437Y15812D2*
D15*
X11812D1*
X11937Y15687D1*
Y9618D1*
X6437Y17189D2*
X11435D1*
X11937Y16687D1*
Y15687D1*
X10562Y4938D2*
Y5437D1*
X11937Y6812D1*
Y9618D1*
X9937Y6812D2*
X10937D1*
X11937D1*
X16063Y6186D2*
Y6561D1*
X15812Y6812D1*
X11937D1*
X8437Y18062D2*
X6437D1*
X4187D1*
Y13937D1*
Y12368D1*
X4618Y11937D1*
X6937Y9618D1*
X9937Y13937D2*
X4187D1*
X11187Y11937D2*
X4618D1*
X11562Y5686D2*
Y5437D1*
X10687Y4562D1*
X9687D1*
X9437Y4812D1*
Y7312D1*
X9187Y7562D1*
X7062D1*
X6937Y7687D1*
Y9618D1*
D29*
X8437Y15812D3*
X6437Y17189D3*
X10562Y4938D3*
X9937Y6812D3*
X10937D3*
X16063Y6186D3*
X8437Y18062D3*
X6437D3*
X9937Y13937D3*
X11187Y11937D3*
X11562Y5686D3*
X4347Y20803D2*
D16*
X16526D1*
X4347Y20555D2*
X16526D1*
X4347Y20306D2*
X16526D1*
X4347Y20057D2*
X16526D1*
X4347Y19809D2*
X16526D1*
X4347Y19560D2*
X16526D1*
X4347Y19311D2*
X16526D1*
X4347Y19063D2*
X14475D1*
X15900D2*
X16526D1*
X4347Y18814D2*
X14475D1*
X15900D2*
X16526D1*
X4347Y18565D2*
X14475D1*
X15900D2*
X16526D1*
X8661Y18316D2*
X14475D1*
X15900D2*
X16526D1*
X8786Y18068D2*
X14475D1*
X15900D2*
X16526D1*
X8677Y17819D2*
X14475D1*
X15900D2*
X16526D1*
X4486Y17570D2*
X16526D1*
X4486Y17322D2*
X16526D1*
X4486Y17073D2*
X14901D1*
X15474D2*
X16526D1*
X4486Y16824D2*
X14592D1*
X15779D2*
X16526D1*
X4486Y16576D2*
X14490D1*
X15884D2*
X16526D1*
X4486Y16327D2*
X14483D1*
X15892D2*
X16526D1*
X4486Y16078D2*
X14576D1*
X15798D2*
X16526D1*
X4486Y15830D2*
X14838D1*
X15533D2*
X16526D1*
X4486Y15581D2*
X16526D1*
X4486Y15332D2*
X16526D1*
X4486Y15084D2*
X14928D1*
X15447D2*
X16526D1*
X4486Y14835D2*
X14600D1*
X15775D2*
X16526D1*
X4486Y14586D2*
X14490D1*
X15884D2*
X16526D1*
X4486Y14337D2*
X14483D1*
X15892D2*
X16526D1*
X10247Y14089D2*
X14568D1*
X15806D2*
X16526D1*
X10271Y13840D2*
X14822D1*
X15552D2*
X16526D1*
X4486Y13591D2*
X16526D1*
X4486Y13343D2*
X16526D1*
X4486Y13094D2*
X14959D1*
X15415D2*
X16526D1*
X4486Y12845D2*
X14608D1*
X15767D2*
X16526D1*
X4486Y12597D2*
X14494D1*
X15880D2*
X16526D1*
X4622Y12348D2*
X14479D1*
X15892D2*
X16526D1*
X11493Y12099D2*
X14565D1*
X15810D2*
X16526D1*
X11525Y11851D2*
X14803D1*
X15572D2*
X16526D1*
X4347Y11602D2*
X4541D1*
X5368D2*
X16526D1*
X4347Y11353D2*
X4787D1*
X5615D2*
X16526D1*
X4347Y11105D2*
X5037D1*
X5865D2*
X16526D1*
X4347Y10856D2*
X5287D1*
X6115D2*
X16526D1*
X4347Y10607D2*
X5533D1*
X6361D2*
X16526D1*
X4347Y10358D2*
X5783D1*
X7224D2*
X11651D1*
X12224D2*
X16526D1*
X4347Y10110D2*
X6033D1*
X7576D2*
X11299D1*
X12576D2*
X16526D1*
X4347Y9861D2*
X6166D1*
X7708D2*
X11166D1*
X12708D2*
X16526D1*
X4347Y9612D2*
X6127D1*
X7747D2*
X11127D1*
X12747D2*
X16526D1*
X4347Y9364D2*
X6170D1*
X7704D2*
X11170D1*
X12704D2*
X16526D1*
X4347Y9115D2*
X4561D1*
X5654D2*
X6311D1*
X7564D2*
X8221D1*
X9314D2*
X9561D1*
X10654D2*
X11311D1*
X12564D2*
X13221D1*
X14314D2*
X16526D1*
X5872Y8866D2*
X6639D1*
X7236D2*
X8002D1*
X10872D2*
X11686D1*
X12189D2*
X13002D1*
X14533D2*
X16526D1*
X5966Y8618D2*
X6639D1*
X7236D2*
X7908D1*
X10966D2*
X12908D1*
X14630D2*
X16526D1*
X5986Y8369D2*
X6639D1*
X7236D2*
X7889D1*
X10986D2*
X12889D1*
X14646D2*
X16526D1*
X5927Y8120D2*
X6639D1*
X7236D2*
X7947D1*
X10927D2*
X12947D1*
X14587D2*
X16526D1*
X5775Y7872D2*
X6639D1*
X7236D2*
X8100D1*
X10775D2*
X13100D1*
X14435D2*
X16526D1*
X4347Y7623D2*
X4818D1*
X5392D2*
X6647D1*
X9540D2*
X9818D1*
X10392D2*
X13479D1*
X14056D2*
X16526D1*
X4347Y7374D2*
X4818D1*
X5704D2*
X6838D1*
X9728D2*
X16526D1*
X4347Y7125D2*
X4615D1*
X5908D2*
X7787D1*
X9736D2*
X16526D1*
X4347Y6877D2*
X4553D1*
X5974D2*
X7705D1*
X9736D2*
X16526D1*
X4347Y6628D2*
X4580D1*
X5943D2*
X7717D1*
X9736D2*
X16526D1*
X4347Y6379D2*
X4717D1*
X5806D2*
X7834D1*
X9736D2*
X16526D1*
X4966Y6131D2*
X7131D1*
X7724D2*
X8139D1*
X9736D2*
X16526D1*
X5177Y5882D2*
X6920D1*
X9736D2*
X11279D1*
X11845D2*
X16526D1*
X5212Y5633D2*
X6885D1*
X9736D2*
X11217D1*
X11908D2*
X16526D1*
X5118Y5385D2*
X6979D1*
X7876D2*
X8044D1*
X9736D2*
X11096D1*
X11857D2*
X16526D1*
X4347Y5136D2*
X4764D1*
X5759D2*
X7869D1*
X9736D2*
X10846D1*
X11673D2*
X16526D1*
X4347Y4887D2*
X4561D1*
X5962D2*
X7693D1*
X9775D2*
X10600D1*
X11427D2*
X16526D1*
X4347Y4639D2*
X4486D1*
X6036D2*
X7631D1*
X11177D2*
X16526D1*
X4347Y4390D2*
X4494D1*
X6029D2*
X7654D1*
X10927D2*
X16526D1*
X14614Y8312D2*
X14587Y8191D1*
X14542Y8074D1*
X14481Y7965D1*
X14405Y7866D1*
X14315Y7779D1*
X14213Y7707D1*
X14102Y7650D1*
X13984Y7609D1*
X13861Y7587D1*
X13736Y7582D1*
X13612Y7596D1*
X13492Y7627D1*
X13377Y7676D1*
X13270Y7741D1*
X13174Y7821D1*
X13091Y7914D1*
X13022Y8018D1*
X12969Y8131D1*
X12933Y8251D1*
X12915Y8375D1*
Y8499D1*
X12933Y8623D1*
X12969Y8743D1*
X13022Y8856D1*
X13091Y8960D1*
X13174Y9053D1*
X13270Y9133D1*
X13377Y9198D1*
X13491Y9247D1*
X13612Y9278D1*
X13736Y9292D1*
X13861Y9287D1*
X13984Y9265D1*
X14102Y9224D1*
X14213Y9167D1*
X14315Y9095D1*
X14405Y9008D1*
X14481Y8909D1*
X14542Y8800D1*
X14587Y8684D1*
X14614Y8562D1*
X14623Y8437D1*
X14614Y8312D1*
X10953D2*
X10925Y8191D1*
X10881Y8074D1*
X10820Y7965D1*
X10743Y7866D1*
X10654Y7779D1*
X10552Y7707D1*
X10441Y7650D1*
X10323Y7609D1*
X10200Y7587D1*
X10075Y7582D1*
X9951Y7596D1*
X9830Y7627D1*
X9715Y7676D1*
X9609Y7741D1*
X9513Y7821D1*
X9437Y7905D1*
X9329Y7793D1*
X9381Y7756D1*
X9631Y7506D1*
X9697Y7397D1*
X9712Y7312D1*
Y4925D1*
X9800Y4838D1*
X10574Y4837D1*
X11274Y5538D1*
X11239Y5668D1*
X11256Y5791D1*
X11318Y5899D1*
X11416Y5975D1*
X11535Y6009D1*
X11659Y5995D1*
X11768Y5936D1*
X11847Y5840D1*
X11884Y5722D1*
X11886Y5686D1*
X11862Y5564D1*
X11839Y5528D1*
X11837Y5437D1*
X11807Y5313D1*
X11756Y5243D1*
X10878Y4365D1*
X10822Y4322D1*
X16552D1*
Y21052D1*
X4322D1*
Y18337D1*
X6269D1*
X6291Y18351D1*
X6410Y18385D1*
X6534Y18371D1*
X6599Y18336D1*
X8269Y18337D1*
X8291Y18351D1*
X8410Y18385D1*
X8534Y18371D1*
X8643Y18312D1*
X8722Y18216D1*
X8759Y18098D1*
X8761Y18062D1*
X8737Y17940D1*
X8669Y17836D1*
X8567Y17765D1*
X8446Y17738D1*
X8323Y17759D1*
X8274Y17789D1*
X6605Y17787D1*
X6567Y17765D1*
X6446Y17738D1*
X6323Y17759D1*
X6274Y17789D1*
X4464Y17787D1*
X4462Y15562D1*
Y14214D1*
X6687Y14212D1*
X9769D1*
X9791Y14226D1*
X9910Y14260D1*
X10034Y14246D1*
X10143Y14187D1*
X10222Y14091D1*
X10259Y13973D1*
X10261Y13937D1*
X10237Y13815D1*
X10169Y13711D1*
X10067Y13640D1*
X9946Y13613D1*
X9823Y13634D1*
X9774Y13664D1*
X6937Y13662D1*
X4464D1*
X4462Y12480D1*
X4732Y12212D1*
X11013D1*
X11160Y12260D1*
X11284Y12246D1*
X11393Y12187D1*
X11472Y12091D1*
X11509Y11973D1*
X11511Y11937D1*
X11487Y11815D1*
X11419Y11711D1*
X11317Y11640D1*
X11196Y11613D1*
X11073Y11634D1*
X11024Y11664D1*
X8187Y11662D1*
X5285D1*
X6611Y10333D1*
X6737Y10378D1*
X6860Y10400D1*
X6985Y10402D1*
X7109Y10385D1*
X7228Y10348D1*
X7340Y10292D1*
X7442Y10220D1*
X7531Y10132D1*
X7605Y10032D1*
X7662Y9921D1*
X7701Y9802D1*
X7723Y9618D1*
X7713Y9494D1*
X7683Y9372D1*
X7635Y9257D1*
X7569Y9151D1*
X7487Y9057D1*
X7391Y8977D1*
X7284Y8913D1*
X7215Y8886D1*
X7212Y8118D1*
Y7841D1*
X7937Y7837D1*
X8160D1*
X8091Y7914D1*
X8022Y8018D1*
X7969Y8131D1*
X7933Y8251D1*
X7915Y8375D1*
Y8499D1*
X7933Y8623D1*
X7969Y8743D1*
X8022Y8856D1*
X8091Y8960D1*
X8174Y9053D1*
X8270Y9133D1*
X8377Y9198D1*
X8491Y9247D1*
X8612Y9278D1*
X8736Y9292D1*
X8861Y9287D1*
X8984Y9265D1*
X9102Y9224D1*
X9213Y9167D1*
X9315Y9095D1*
X9436Y8968D1*
X9512Y9053D1*
X9608Y9133D1*
X9715Y9198D1*
X9830Y9247D1*
X9951Y9278D1*
X10075Y9292D1*
X10200Y9287D1*
X10323Y9265D1*
X10441Y9224D1*
X10552Y9167D1*
X10653Y9095D1*
X10743Y9008D1*
X10820Y8909D1*
X10881Y8800D1*
X10925Y8684D1*
X10953Y8562D1*
X10962Y8437D1*
X10953Y8312D1*
X5953D2*
X5925Y8191D1*
X5881Y8074D1*
X5820Y7965D1*
X5743Y7866D1*
X5654Y7779D1*
X5552Y7707D1*
X5441Y7650D1*
X5323Y7609D1*
X5200Y7587D1*
X5075Y7582D1*
X4951Y7596D1*
X4830Y7627D1*
X4715Y7676D1*
X4609Y7741D1*
X4513Y7821D1*
X4429Y7914D1*
X4360Y8018D1*
X4322Y8100D1*
Y6072D1*
X4367Y6108D1*
X4476Y6169D1*
X4596Y6202D1*
X4721Y6205D1*
X4842Y6178D1*
X4954Y6123D1*
X5050Y6043D1*
X5124Y5943D1*
X5172Y5828D1*
X5191Y5687D1*
X5176Y5563D1*
X5132Y5447D1*
X5062Y5344D1*
X4969Y5261D1*
X4859Y5202D1*
X4738Y5171D1*
X4613Y5170D1*
X4492Y5199D1*
X4381Y5256D1*
X4325Y5304D1*
X4322Y4322D1*
X4537D1*
X4516Y4418D1*
X4505Y4542D1*
X4515Y4666D1*
X4545Y4788D1*
X4594Y4902D1*
X4662Y5007D1*
X4746Y5099D1*
X4844Y5177D1*
X4954Y5237D1*
X5071Y5278D1*
X5194Y5299D1*
X5319Y5300D1*
X5443Y5280D1*
X5561Y5241D1*
X5671Y5182D1*
X5770Y5106D1*
X5856Y5015D1*
X5925Y4911D1*
X5976Y4797D1*
X6007Y4676D1*
X6019Y4545D1*
X6009Y4421D1*
X5983Y4319D1*
X6947Y4322D1*
X7701D1*
X7665Y4457D1*
X7654Y4581D1*
X7664Y4706D1*
X7694Y4827D1*
X7744Y4942D1*
X7812Y5046D1*
X7896Y5139D1*
X7994Y5216D1*
X8129Y5285D1*
X8058Y5411D1*
X8018Y5530D1*
X8001Y5653D1*
X8006Y5778D1*
X8034Y5900D1*
X8083Y6014D1*
X8177Y6144D1*
X8058Y6200D1*
X7958Y6273D1*
X7872Y6364D1*
X7804Y6469D1*
X7756Y6584D1*
X7729Y6706D1*
X7726Y6831D1*
X7744Y6954D1*
X7785Y7072D1*
X7847Y7181D1*
X7937Y7287D1*
X7062D1*
X6938Y7317D1*
X6868Y7368D1*
X6743Y7493D1*
X6679Y7595D1*
X6662Y7687D1*
Y8886D1*
X6562Y8928D1*
X6457Y8996D1*
X6365Y9080D1*
X6287Y9177D1*
X6225Y9286D1*
X6181Y9403D1*
X6157Y9525D1*
X6152Y9650D1*
X6167Y9774D1*
X6223Y9940D1*
X5063Y11103D1*
X4321Y11845D1*
X4322Y8775D1*
X4360Y8856D1*
X4429Y8960D1*
X4512Y9053D1*
X4608Y9133D1*
X4715Y9198D1*
X4830Y9247D1*
X4951Y9278D1*
X5075Y9292D1*
X5200Y9287D1*
X5323Y9265D1*
X5441Y9224D1*
X5552Y9167D1*
X5653Y9095D1*
X5743Y9008D1*
X5820Y8909D1*
X5881Y8800D1*
X5925Y8684D1*
X5953Y8562D1*
X5962Y8437D1*
X5953Y8312D1*
X12722Y9593D2*
X12703Y9445D1*
X12656Y9302D1*
X12583Y9172D1*
X12487Y9057D1*
X12370Y8963D1*
X12238Y8893D1*
X12095Y8849D1*
X11946Y8833D1*
X11797Y8845D1*
X11653Y8886D1*
X11519Y8953D1*
X11400Y9045D1*
X11301Y9157D1*
X11225Y9286D1*
X11175Y9427D1*
X11153Y9575D1*
X11159Y9725D1*
X11193Y9871D1*
X11255Y10007D1*
X11341Y10130D1*
X11449Y10234D1*
X11574Y10315D1*
X11713Y10371D1*
X11860Y10400D1*
X12010D1*
X12157Y10372D1*
X12296Y10317D1*
X12422Y10236D1*
X12531Y10132D1*
X12618Y10010D1*
X12680Y9874D1*
X12715Y9729D1*
X12722Y9593D1*
X5938Y6704D2*
X5904Y6584D1*
X5849Y6472D1*
X5775Y6372D1*
X5684Y6286D1*
X5579Y6219D1*
X5463Y6172D1*
X5341Y6146D1*
X5216Y6143D1*
X5093Y6163D1*
X4975Y6204D1*
X4867Y6266D1*
X4772Y6347D1*
X4693Y6444D1*
X4632Y6553D1*
X4593Y6671D1*
X4576Y6795D1*
X4581Y6920D1*
X4608Y7042D1*
X4658Y7156D1*
X4727Y7260D1*
X4814Y7350D1*
X4915Y7422D1*
X5029Y7475D1*
X5149Y7507D1*
X5274Y7516D1*
X5398Y7502D1*
X5518Y7467D1*
X5629Y7410D1*
X5728Y7334D1*
X5811Y7241D1*
X5877Y7135D1*
X5922Y7019D1*
X5949Y6829D1*
X5938Y6704D1*
X7932Y5563D2*
X7888Y5447D1*
X7818Y5344D1*
X7725Y5261D1*
X7615Y5202D1*
X7494Y5171D1*
X7369Y5170D1*
X7248Y5199D1*
X7137Y5256D1*
X7042Y5337D1*
X6970Y5439D1*
X6924Y5555D1*
X6907Y5678D1*
X6920Y5802D1*
X6962Y5920D1*
X7031Y6024D1*
X7123Y6108D1*
X7232Y6169D1*
X7352Y6202D1*
X7477Y6205D1*
X7598Y6178D1*
X7710Y6123D1*
X7806Y6043D1*
X7880Y5943D1*
X7928Y5828D1*
X7947Y5687D1*
X7932Y5563D1*
X14624Y19125D2*
X15875D1*
Y17749D1*
X14499D1*
Y19125D1*
X14624D1*
X15863Y16313D2*
X15830Y16192D1*
X15775Y16080D1*
X15701Y15980D1*
X15610Y15895D1*
X15505Y15827D1*
X15389Y15780D1*
X15267Y15754D1*
X15142Y15751D1*
X15019Y15770D1*
X14901Y15811D1*
X14793Y15873D1*
X14698Y15954D1*
X14618Y16050D1*
X14558Y16160D1*
X14518Y16278D1*
X14500Y16401D1*
X14505Y16526D1*
X14532Y16648D1*
X14581Y16763D1*
X14650Y16867D1*
X14737Y16957D1*
X14838Y17030D1*
X14951Y17083D1*
X15072Y17115D1*
X15196Y17125D1*
X15320Y17112D1*
X15440Y17077D1*
X15551Y17020D1*
X15651Y16945D1*
X15735Y16853D1*
X15801Y16747D1*
X15847Y16631D1*
X15871Y16508D1*
X15875Y16437D1*
X15863Y16313D1*
Y14313D2*
X15830Y14192D1*
X15775Y14080D1*
X15701Y13980D1*
X15610Y13895D1*
X15505Y13827D1*
X15389Y13780D1*
X15267Y13754D1*
X15142Y13751D1*
X15019Y13770D1*
X14901Y13811D1*
X14793Y13873D1*
X14698Y13954D1*
X14618Y14050D1*
X14558Y14160D1*
X14518Y14278D1*
X14500Y14401D1*
X14505Y14526D1*
X14532Y14648D1*
X14581Y14763D1*
X14650Y14867D1*
X14737Y14957D1*
X14838Y15030D1*
X14951Y15083D1*
X15072Y15115D1*
X15196Y15125D1*
X15320Y15112D1*
X15440Y15077D1*
X15551Y15020D1*
X15651Y14945D1*
X15735Y14853D1*
X15801Y14747D1*
X15847Y14631D1*
X15871Y14508D1*
X15875Y14437D1*
X15863Y14313D1*
Y12313D2*
X15830Y12192D1*
X15775Y12080D1*
X15701Y11980D1*
X15610Y11895D1*
X15505Y11827D1*
X15389Y11780D1*
X15267Y11754D1*
X15142Y11751D1*
X15019Y11770D1*
X14901Y11811D1*
X14793Y11873D1*
X14698Y11954D1*
X14618Y12050D1*
X14558Y12160D1*
X14518Y12278D1*
X14500Y12401D1*
X14505Y12526D1*
X14532Y12648D1*
X14581Y12763D1*
X14650Y12867D1*
X14737Y12957D1*
X14838Y13030D1*
X14951Y13083D1*
X15072Y13115D1*
X15196Y13125D1*
X15320Y13112D1*
X15440Y13077D1*
X15551Y13020D1*
X15651Y12945D1*
X15735Y12853D1*
X15801Y12747D1*
X15847Y12631D1*
X15871Y12508D1*
X15875Y12437D1*
X15863Y12313D1*
X11937Y10403D2*
D17*
Y8833D1*
X11152Y9618D2*
X12722D1*
X7725Y6789D2*
X8411D1*
D18*
X13768Y8437D3*
X10106D3*
X8768D3*
X5106D3*
X11937Y9618D3*
X6937D3*
D22*
X8687Y5687D3*
X8411Y6789D3*
Y4585D3*
X5262Y6829D3*
Y4545D3*
D23*
X15187Y18437D3*
D24*
Y16437D3*
Y14437D3*
Y12437D3*
M02*
