G04 DipTrace 2.4.0.2*
%INeeg.back.gbl*%
%MOIN*%
%ADD14C,0.01*%
%ADD15C,0.016*%
%ADD18C,0.1181*%
%ADD19R,0.0591X0.0512*%
%ADD20R,0.063X0.1063*%
%ADD21R,0.0512X0.0591*%
%ADD22C,0.0984*%
%ADD23R,0.0906X0.0906*%
%ADD24C,0.0906*%
%ADD26R,0.0413X0.0256*%
%ADD27R,0.0787X0.0236*%
%ADD28R,0.0236X0.0787*%
%ADD29C,0.0236*%
%FSLAX44Y44*%
G04*
G70*
G90*
G75*
G01*
%LNBottom*%
%LPD*%
X15187Y14437D2*
D14*
X14687D1*
X14187Y13937D1*
X13187D1*
X15187Y12437D2*
X14187Y13437D1*
X13187D1*
X8937Y20687D2*
X7937D1*
X6939D1*
X6937Y20685D1*
X8937Y20687D2*
X9437Y21187D1*
X15687D1*
X15812Y21062D1*
Y17062D1*
X15187Y16437D1*
X13187Y12937D2*
D15*
Y12687D1*
X12437Y11937D1*
X8437Y16561D2*
Y15812D1*
X7937Y15185D2*
Y15312D1*
X8437Y15812D1*
X8937Y14439D2*
X8810D1*
X8187Y15062D1*
X8060D1*
X7937Y15185D1*
X12437Y11937D2*
Y10118D1*
X11937Y9618D1*
X5937Y17189D2*
X6437D1*
X10063Y4938D2*
X10562D1*
X8411Y6789D2*
X9960D1*
X9937Y6812D1*
X11439D2*
X10937D1*
X16063Y5686D2*
Y6186D1*
X12687Y15439D2*
D14*
Y14937D1*
X13187Y14437D1*
X11687Y15437D2*
Y14937D1*
X11187Y14437D1*
X11061D1*
X11687Y16185D2*
X12685D1*
X12687Y16187D1*
X8937Y18687D2*
Y18187D1*
X9062Y18062D1*
X11687D1*
Y16185D1*
X7437Y18687D2*
Y19312D1*
X7562Y19437D1*
X8687D1*
X8937Y19687D1*
Y19939D1*
X9937Y20685D2*
X9683D1*
X8937Y19939D1*
X6937Y19937D2*
X7935D1*
X7937Y19939D1*
X6937Y19937D2*
Y18687D1*
X11061Y13437D2*
X8939D1*
X8937Y13435D1*
Y15187D2*
X9937D1*
X8937Y16561D2*
Y15187D1*
Y12687D2*
X7939D1*
X7937Y12689D1*
Y13437D2*
X6939D1*
X6937Y13435D1*
Y14439D1*
X7937Y13437D2*
Y14437D1*
X6939D1*
X6937Y14439D1*
X5937D2*
Y13187D1*
X6437Y12687D1*
X6937D1*
X7437Y16561D2*
Y14812D1*
X6310D1*
X5937Y14439D1*
X6937Y15187D2*
X5937D1*
X6937D2*
Y16561D1*
X11335Y8062D2*
X11187D1*
X11062Y7937D1*
Y8562D1*
X7437Y12187D1*
X6437D1*
X5437Y13187D1*
Y14937D1*
X5687Y15187D1*
X5937D1*
X13187Y5685D2*
Y6562D1*
X12937Y6812D1*
X12187D1*
Y7812D1*
X12437Y8062D1*
X15063Y4938D2*
X16063D1*
X14093Y5311D2*
X14690D1*
X15063Y4938D1*
X11063D2*
X12063D1*
X13186D1*
X13187Y4937D1*
X8687Y5687D2*
X10062D1*
X10063Y5686D1*
X11063D1*
X5262Y6829D2*
Y6887D1*
X5937Y7562D1*
X10437D1*
X10687Y7312D1*
Y6437D1*
X10937Y6187D1*
X12562D1*
X12687Y6062D1*
Y5562D1*
X12937Y5312D1*
X13437D1*
X13812Y5687D1*
X15062D1*
X15063Y5686D1*
X9937Y19937D2*
Y18687D1*
X9437D1*
X9937D2*
X10062D1*
X10312Y18437D1*
X15187D1*
X11061Y13937D2*
D15*
X11687D1*
X12062Y13562D1*
Y12562D1*
X11689Y12189D1*
Y11937D1*
X8437Y18687D2*
Y18062D1*
X5937Y17937D2*
X6312D1*
X6437Y18062D1*
X9937Y14439D2*
Y13937D1*
X11689Y11937D2*
X11187D1*
X12063Y5686D2*
X11562D1*
X11061Y12937D2*
D14*
X11437D1*
X11687Y13187D1*
Y13562D1*
X11562Y13687D1*
X10562D1*
X10437Y13812D1*
Y16061D1*
X9937Y16561D1*
X9437D2*
X9937D1*
X7937D2*
Y17062D1*
X8062Y17187D1*
X9312D1*
X9437Y17062D1*
Y16561D1*
X7937Y18687D2*
Y17081D1*
X8062Y17187D1*
D29*
X8437Y15812D3*
X6437Y17189D3*
X10562Y4938D3*
X9937Y6812D3*
X10937D3*
X16063Y6186D3*
X8437Y18062D3*
X6437D3*
X9937Y13937D3*
X11187Y11937D3*
X11562Y5686D3*
D18*
X13768Y8437D3*
X10106D3*
X8768D3*
X5106D3*
X11937Y9618D3*
X6937D3*
D19*
X5937Y15187D3*
Y14439D3*
X8937Y12687D3*
Y13435D3*
X15063Y5686D3*
Y4938D3*
X7937Y14437D3*
Y15185D3*
D20*
X12437Y8062D3*
X11335D3*
D19*
X11063Y4938D3*
Y5686D3*
X8937Y20687D3*
Y19939D3*
X7937Y20687D3*
Y19939D3*
X5937Y17937D3*
Y17189D3*
D21*
X11689Y11937D3*
X12437D3*
D22*
X8687Y5687D3*
X8411Y6789D3*
Y4585D3*
X5262Y6829D3*
Y4545D3*
D23*
X15187Y18437D3*
D24*
Y16437D3*
Y14437D3*
Y12437D3*
D26*
X13187Y4937D3*
Y5685D3*
X14093Y5311D3*
D19*
X11687Y15437D3*
Y16185D3*
X9937Y14439D3*
Y15187D3*
X8937D3*
Y14439D3*
X7937Y13437D3*
Y12689D3*
X6937Y12687D3*
Y13435D3*
Y15187D3*
Y14439D3*
X10063Y5686D3*
Y4938D3*
X12063Y5686D3*
Y4938D3*
X16063D3*
Y5686D3*
D21*
X12187Y6812D3*
X11439D3*
D19*
X12687Y15439D3*
Y16187D3*
X6937Y19937D3*
Y20685D3*
X9937Y19937D3*
Y20685D3*
D27*
X13187Y14437D3*
Y13937D3*
Y13437D3*
Y12937D3*
X11061D3*
Y13437D3*
Y13937D3*
Y14437D3*
D28*
X6937Y18687D3*
X7437D3*
X7937D3*
X8437D3*
X8937D3*
X9437D3*
X9937D3*
Y16561D3*
X9437D3*
X8937D3*
X8437D3*
X7937D3*
X7437D3*
X6937D3*
M02*
