M48
INCH
T01C0.0118
T02C0.0433
T03C0.0551
T04C0.0591
T05C0.0709
%
T01
X+008437Y+015812
X+008437Y+018062
X+006437Y+018062
X+006437Y+017189
X+009937Y+013937
X+011187Y+011937
X+010937Y+006812
X+009937Y+006812
X+010562Y+004938
X+011562Y+005686
X+016063Y+006186
T02
X+007427Y+005687
X+004671Y+005687
T03
X+015187Y+018437
X+015187Y+016437
X+015187Y+014437
X+015187Y+012437
T04
X+008687Y+005687
X+008411Y+006789
X+008411Y+004585
X+005262Y+004545
X+005262Y+006829
T05
X+013768Y+008437
X+011937Y+009618
X+010106Y+008437
X+008768Y+008437
X+006937Y+009618
X+005106Y+008437
T00
M30
